<svg xmlns="http://www.w3.org/2000/svg" viewBox="0 0 32 32">
  <!-- Blue rounded square background -->
  <rect width="32" height="32" rx="6" fill="#005eD2"/>
  
  <!-- Settings/Gear icon in white -->
  <g transform="translate(6, 6)" fill="none" stroke="white" stroke-width="1.5" stroke-linecap="round" stroke-linejoin="round">
    <!-- Outer gear teeth -->
    <path d="M10 12.5a2.5 2.5 0 1 0 0-5 2.5 2.5 0 0 0 0 5Z"/>
    <path d="M16.167 12.5a1.39 1.39 0 0 0 .278 1.533l.05.05a1.687 1.687 0 0 1-1.194 2.881 1.687 1.687 0 0 1-1.194-.494l-.05-.05a1.39 1.39 0 0 0-1.534-.278 1.39 1.39 0 0 0-.84 1.272v.142a1.688 1.688 0 0 1-3.375 0v-.075a1.39 1.39 0 0 0-.909-1.272 1.39 1.39 0 0 0-1.533.278l-.05.05a1.687 1.687 0 1 1-2.387-2.387l.05-.05a1.39 1.39 0 0 0 .278-1.534 1.39 1.39 0 0 0-1.272-.84h-.142a1.688 1.688 0 0 1 0-3.375h.075a1.39 1.39 0 0 0 1.272-.909 1.39 1.39 0 0 0-.278-1.533l-.05-.05a1.687 1.687 0 1 1 2.387-2.387l.05.05a1.39 1.39 0 0 0 1.534.278h.067a1.39 1.39 0 0 0 .84-1.272v-.142a1.688 1.688 0 1 1 3.375 0v.075a1.39 1.39 0 0 0 .84 1.272 1.39 1.39 0 0 0 1.534-.278l.05-.05a1.687 1.687 0 1 1 2.387 2.387l-.05.05a1.39 1.39 0 0 0-.278 1.534v.067a1.39 1.39 0 0 0 1.272.84h.142a1.688 1.688 0 0 1 0 3.375h-.075a1.39 1.39 0 0 0-1.272.84Z"/>
  </g>
</svg>


